<svg class="icon-github" width="32" height="31" viewBox="0 0 32 31" fill="current" xmlns="http://www.w3.org/2000/svg">
<path fill-rule="evenodd" clip-rule="evenodd" d="M16.0044 0.9375C7.50729 0.9375 0.625 7.81978 0.625 16.3169C0.625 23.1223 5.02736 28.8703 11.1407 30.9081C11.9096 31.0427 12.198 30.5813 12.198 30.1776C12.198 29.8123 12.1788 28.6012 12.1788 27.3132C8.31471 28.0245 7.31504 26.3712 7.00745 25.5061C6.83444 25.0639 6.08469 23.699 5.43107 23.3338C4.89279 23.0454 4.12382 22.3341 5.41184 22.3149C6.62297 22.2957 7.48806 23.4299 7.77642 23.8913C9.16057 26.2174 11.3714 25.5638 12.2557 25.1601C12.3902 24.1604 12.794 23.4876 13.2361 23.1031C9.8142 22.7186 6.23848 21.3921 6.23848 15.5095C6.23848 13.837 6.83444 12.4528 7.81487 11.3763C7.66108 10.9918 7.1228 9.4154 7.96867 7.30073C7.96867 7.30073 9.25669 6.89702 12.198 8.87712C13.4284 8.53108 14.7356 8.35806 16.0429 8.35806C17.3501 8.35806 18.6574 8.53108 19.8877 8.87712C22.829 6.8778 24.117 7.30073 24.117 7.30073C24.9629 9.4154 24.4246 10.9918 24.2708 11.3763C25.2513 12.4528 25.8472 13.8178 25.8472 15.5095C25.8472 21.4113 22.2523 22.7186 18.8304 23.1031C19.3879 23.5837 19.8685 24.5064 19.8685 25.9483C19.8685 28.0053 19.8493 29.6585 19.8493 30.1776C19.8493 30.5813 20.1376 31.0619 20.9066 30.9081C26.9815 28.8703 31.3838 23.1031 31.3838 16.3169C31.3838 7.81978 24.5015 0.9375 16.0044 0.9375V0.9375Z"/>
</svg>
