<svg width="24" height="31" viewBox="0 0 24 31" fill="none" xmlns="http://www.w3.org/2000/svg">
<rect width="9.32794" height="9.26736" rx="4.63368" transform="matrix(-1 0 0 1 23.6055 0.857056)" fill="#FF8181"/>
<rect width="9.32794" height="9.26736" rx="4.63368" transform="matrix(-1 0 0 1 21.6074 10.1243)" fill="#00D1FF"/>
<rect width="11.6296" height="11.3873" rx="5.69367" transform="matrix(-1 0 0 1 12.2783 19.3917)" fill="#00FF19"/>
<rect width="6.23881" height="6.4811" transform="matrix(-1 0 0 1 12.2783 19.3917)" fill="#00FF19"/>
<rect x="0.285156" y="0.857056" width="9.32794" height="9.26736" rx="4.63368" fill="#FF3939"/>
<rect x="0.285156" y="10.1243" width="9.32794" height="9.26736" rx="4.63368" fill="#AD00FF"/>
<rect width="6.72338" height="9.26736" transform="matrix(-1 0 0 1 19.002 0.857056)" fill="#FF8181"/>
<rect x="4.88867" y="0.857056" width="7.38966" height="9.26736" fill="#FF3939"/>
<rect x="4.88867" y="10.1243" width="7.38966" height="9.26736" fill="#AD00FF"/>
</svg>
