<svg width="26" height="27" viewBox="0 0 26 27" fill="none" xmlns="http://www.w3.org/2000/svg">
<path d="M18.4138 0.383789L1.67676 1.88069C2.18013 8.36725 3.21204 21.515 3.31271 22.2136C3.41339 22.9121 5.20035 24.5836 6.08125 25.3321L24.706 24.4589V4.99923L18.4138 0.383789Z" fill="white"/>
<path fill-rule="evenodd" clip-rule="evenodd" d="M16.6259 0.0612714L1.76 1.15853C0.561294 1.26258 0.143555 2.0464 0.143555 2.98608V19.2833C0.143555 20.0155 0.403946 20.6413 1.03013 21.4778L4.52469 26.0222C5.0987 26.754 5.62035 26.9106 6.71643 26.8582L23.9801 25.8133C25.4402 25.7093 25.8578 25.0298 25.8578 23.8807V5.54584C25.8578 4.95186 25.6234 4.78027 24.9321 4.27446C24.8941 4.24663 24.8547 4.21779 24.8138 4.18781L20.0685 0.844874C18.9211 0.00945946 18.4514 -0.0956632 16.6259 0.0612714ZM7.10698 5.2452C5.6975 5.34059 5.37724 5.36227 4.57682 4.71052L2.54137 3.09128C2.33376 2.88189 2.43789 2.6207 2.95909 2.56889L17.251 1.52408C18.4503 1.41939 19.0761 1.83795 19.5457 2.20342L21.997 3.97959C22.1014 4.03161 22.3617 4.34463 22.0487 4.34463L7.28893 5.23293L7.10698 5.2452ZM5.46512 23.7236V8.15802C5.46512 7.4791 5.67377 7.16546 6.29932 7.11277L23.2504 6.12064C23.8253 6.06841 24.0857 6.43431 24.0857 7.11277V22.5739C24.0857 23.2535 23.9811 23.8289 23.0419 23.8806L6.82095 24.8214C5.88221 24.8731 5.46512 24.5602 5.46512 23.7236ZM21.4775 8.99309C21.5815 9.4637 21.4775 9.93385 21.0072 9.98673L20.2255 10.1428V21.6343C19.547 21.9999 18.9212 22.2089 18.3998 22.2089C17.565 22.2089 17.3559 21.9475 16.7306 21.1644L11.6183 13.1203V20.9032L13.236 21.2691C13.236 21.2691 13.236 22.2089 11.9308 22.2089L8.33279 22.4181C8.22827 22.2089 8.33279 21.687 8.69774 21.5824L9.63668 21.3216V11.0311L8.33301 10.9264C8.22848 10.4558 8.48886 9.77734 9.21959 9.72468L13.0795 9.46389L18.3998 17.6127V10.404L17.0433 10.2479C16.9392 9.67266 17.3559 9.25493 17.8775 9.20313L21.4775 8.99309Z" fill="black"/>
</svg>
