<svg width="30" height="31" viewBox="0 0 30 31" fill="none" xmlns="http://www.w3.org/2000/svg">
<path d="M14.9979 30.1419C7.12127 30.1419 0.712891 23.7341 0.712891 15.8571C0.712891 7.98016 7.12127 1.57239 14.9979 1.57239C22.8746 1.57239 29.283 7.98076 29.283 15.8574C29.283 23.7341 22.8746 30.1419 14.9979 30.1419Z" fill="#85EA2D"/>
<path d="M14.9998 2.28709C22.4945 2.28709 28.5698 8.36235 28.5698 15.857C28.5698 23.3514 22.4945 29.427 14.9998 29.427C7.50547 29.427 1.42991 23.3514 1.42991 15.857C1.42991 8.36265 7.50547 2.28709 14.9998 2.28709ZM14.9998 0.857178C6.7289 0.857178 0 7.58608 0 15.857C0 24.128 6.7289 30.8569 14.9998 30.8569C23.2708 30.8569 30 24.128 30 15.857C30 7.58608 23.2708 0.857178 14.9998 0.857178Z" fill="#173647"/>
<path d="M9.44595 11.0079C9.39978 11.5212 9.46304 12.0519 9.42886 12.5709C9.38838 13.0902 9.32482 13.6035 9.22107 14.1169C9.07685 14.8494 8.6211 15.4031 7.99265 15.8646C9.21568 16.6607 9.3539 17.8948 9.43456 19.1466C9.47503 19.8215 9.45764 20.5021 9.52691 21.1711C9.57878 21.6901 9.78057 21.8229 10.3173 21.84C10.5365 21.8457 10.761 21.84 11.0153 21.84V23.4435C9.42916 23.7146 8.11978 23.2648 7.79656 21.921C7.69252 21.4307 7.62325 20.9288 7.60047 20.4212C7.56568 19.8848 7.62325 19.3484 7.58308 18.812C7.46764 17.341 7.27724 16.8451 5.87012 16.7758V14.9474C5.97386 14.9243 6.07191 14.9069 6.17565 14.8955C6.94862 14.8551 7.27724 14.6185 7.44455 13.8572C7.52551 13.4305 7.57168 12.9979 7.58877 12.5595C7.64664 11.7233 7.62355 10.8696 7.76747 10.0391C7.96926 8.84516 8.70776 8.26828 9.93648 8.19901C10.2825 8.18162 10.6345 8.19901 11.0324 8.19901V9.83731C10.8651 9.84901 10.7208 9.87179 10.5709 9.87179C9.57308 9.83701 9.52091 10.1773 9.44595 11.0079ZM11.3667 14.8032H11.3436C10.7667 14.7744 10.2708 15.2241 10.2417 15.801C10.2129 16.3836 10.6627 16.8798 11.2396 16.9083H11.3088C11.88 16.9431 12.3699 16.5044 12.4047 15.9336V15.876C12.4164 15.2934 11.9493 14.8149 11.3667 14.8032ZM14.9833 14.8032C14.4238 14.7858 13.9564 15.2241 13.9393 15.7779C13.9393 15.8127 13.9393 15.8415 13.9453 15.876C13.9453 16.5047 14.3719 16.9086 15.0181 16.9086C15.6525 16.9086 16.0507 16.4933 16.0507 15.8415C16.0447 15.2128 15.6235 14.7975 14.9833 14.8032ZM18.6866 14.8032C18.0983 14.7915 17.6078 15.2589 17.5907 15.8472C17.5907 16.4355 18.0635 16.9083 18.6518 16.9083H18.6635C19.1942 17.0007 19.7306 16.4874 19.7654 15.8703C19.7939 15.2991 19.2748 14.8032 18.6866 14.8032ZM23.7682 14.8895C23.0989 14.8607 22.7643 14.6359 22.5973 14.0011C22.4933 13.5975 22.43 13.1763 22.4069 12.761C22.3607 11.988 22.3664 11.2094 22.3146 10.4364C22.1934 8.60229 20.867 7.96214 18.9402 8.27907V9.87119C19.2458 9.87119 19.4823 9.87119 19.7189 9.87689C20.1285 9.88259 20.44 10.0385 20.4802 10.4943C20.5207 10.9095 20.5207 11.3305 20.5611 11.7518C20.6421 12.5883 20.688 13.4359 20.8322 14.2608C20.9593 14.9414 21.4265 15.449 22.0087 15.8643C20.9881 16.5506 20.688 17.5311 20.6361 18.633C20.6073 19.3886 20.5899 20.1498 20.5497 20.9114C20.515 21.6034 20.273 21.8283 19.575 21.8457C19.3789 21.8514 19.1885 21.8688 18.9693 21.8805V23.5128C19.3789 23.5128 19.7537 23.5359 20.1285 23.5128C21.2936 23.4435 21.9973 22.8783 22.2282 21.7477C22.3263 21.1246 22.3838 20.4961 22.4012 19.8674C22.4414 19.2905 22.436 18.7079 22.4936 18.137C22.5799 17.2429 22.9895 16.8738 23.8836 16.8163C23.9703 16.8046 24.0509 16.7875 24.1319 16.7587V14.93C23.9817 14.9126 23.8776 14.8955 23.7682 14.8895Z" fill="#173647"/>
</svg>
